<svg width="32" height="32" viewBox="0 0 32 32" fill="none" xmlns="http://www.w3.org/2000/svg">
<path d="M9.33333 10.6667H5.33333C4.97971 10.6667 4.64057 10.8072 4.39052 11.0572C4.14048 11.3073 4 11.6464 4 12V14.6667C4 15.0203 4.14048 15.3594 4.39052 15.6095C4.64057 15.8595 4.97971 16 5.33333 16H8C8.35362 16 8.69276 16.1405 8.94281 16.3905C9.19286 16.6406 9.33333 16.9797 9.33333 17.3334V20C9.33333 20.3536 9.19286 20.6928 8.94281 20.9428C8.69276 21.1929 8.35362 21.3334 8 21.3334H4M22.6667 10.6667V21.3334M28 10.6667L24 16M24 16L28 21.3334M24 16H22.6667M13.3333 10.6667V21.3334H16C16.7072 21.3334 17.3855 21.0524 17.8856 20.5523C18.3857 20.0522 18.6667 19.3739 18.6667 18.6667V13.3334C18.6667 12.6261 18.3857 11.9478 17.8856 11.4477C17.3855 10.9476 16.7072 10.6667 16 10.6667H13.3333Z" stroke="#699BF7" stroke-width="2.66667" stroke-linecap="round" stroke-linejoin="round"/>
</svg>
