<svg width="32" height="32" viewBox="0 0 32 32" fill="none" xmlns="http://www.w3.org/2000/svg">
<g clip-path="url(#clip0_306_8726)">
<path d="M9.74934 12H7.58401L4.66667 20H6.80934L7.40401 18.3653H9.92934L10.524 20H12.6667L9.74934 12ZM7.89067 17.032L8.66667 14.9066L9.44267 17.0333L7.89067 17.032ZM19.6587 12H14.992V20H16.992V17.3333H19.6587C19.9227 17.3382 20.1849 17.2898 20.4298 17.191C20.6746 17.0922 20.8971 16.9451 21.0838 16.7584C21.2705 16.5717 21.4176 16.3493 21.5164 16.1044C21.6152 15.8596 21.6636 15.5973 21.6587 15.3333V14C21.6636 13.736 21.6152 13.4737 21.5164 13.2289C21.4176 12.984 21.2705 12.7616 21.0838 12.5749C20.8971 12.3882 20.6746 12.241 20.4298 12.1423C20.1849 12.0435 19.9227 11.9951 19.6587 12ZM19.6587 15.3333H16.992V14H19.6587V15.3333ZM24 12H26V20H24V12Z" fill="#699BF7"/>
<path d="M29.3333 7.99998V24H2.66667V7.99998H29.3333ZM29.3333 5.33331H2.66667C1.95942 5.33331 1.28115 5.61426 0.781049 6.11436C0.280952 6.61446 0 7.29274 0 7.99998L0 24C0 24.7072 0.280952 25.3855 0.781049 25.8856C1.28115 26.3857 1.95942 26.6666 2.66667 26.6666H29.3333C30.0406 26.6666 30.7189 26.3857 31.219 25.8856C31.719 25.3855 32 24.7072 32 24V7.99998C32 7.29274 31.719 6.61446 31.219 6.11436C30.7189 5.61426 30.0406 5.33331 29.3333 5.33331Z" fill="#699BF7"/>
</g>
<defs>
<clipPath id="clip0_306_8726">
<rect width="32" height="32" fill="white"/>
</clipPath>
</defs>
</svg>
