<svg width="32" height="32" viewBox="0 0 32 32" fill="none" xmlns="http://www.w3.org/2000/svg">
<g clip-path="url(#clip0_306_8724)">
<path d="M29.792 5.5168H24.2752C24.2752 4.05365 23.694 2.65043 22.6594 1.61583C21.6248 0.581233 20.2215 0 18.7584 0C17.2953 0 15.892 0.581233 14.8574 1.61583C13.8228 2.65043 13.2416 4.05365 13.2416 5.5168H7.7248C7.1392 5.5168 6.57759 5.74943 6.16351 6.16351C5.74943 6.57759 5.5168 7.1392 5.5168 7.7248V13.2416C4.05365 13.2416 2.65043 13.8228 1.61583 14.8574C0.581233 15.892 0 17.2953 0 18.7584C0 20.2215 0.581233 21.6248 1.61583 22.6594C2.65043 23.694 4.05365 24.2752 5.5168 24.2752V29.7936C5.51722 30.3789 5.75004 30.9401 6.16407 31.3539C6.57811 31.7676 7.13948 32 7.7248 32H15.448V29.792C15.448 28.914 15.7968 28.072 16.4176 27.4512C17.0384 26.8304 17.8804 26.4816 18.7584 26.4816C19.6364 26.4816 20.4784 26.8304 21.0992 27.4512C21.72 28.072 22.0688 28.914 22.0688 29.792V32H29.7936C30.3789 31.9996 30.9401 31.7668 31.3539 31.3527C31.7676 30.9387 32 30.3773 32 29.792V22.0688H29.792C28.914 22.0688 28.072 21.72 27.4512 21.0992C26.8304 20.4784 26.4816 19.6364 26.4816 18.7584C26.4816 17.8804 26.8304 17.0384 27.4512 16.4176C28.072 15.7968 28.914 15.448 29.792 15.448H32V7.7248C32 7.1392 31.7674 6.57759 31.3533 6.16351C30.9392 5.74943 30.3776 5.5168 29.792 5.5168ZM24.2752 18.7584C24.2752 19.483 24.4179 20.2005 24.6953 20.87C24.9726 21.5394 25.3791 22.1476 25.8916 22.6599C26.4041 23.1722 27.0124 23.5786 27.6819 23.8557C28.3514 24.1329 29.069 24.2754 29.7936 24.2752V29.7936H24.2752C24.2752 29.0691 24.1325 28.3517 23.8553 27.6824C23.578 27.0131 23.1716 26.4049 22.6594 25.8926C22.1471 25.3804 21.5389 24.974 20.8696 24.6967C20.2003 24.4195 19.4829 24.2768 18.7584 24.2768C18.0339 24.2768 17.3165 24.4195 16.6472 24.6967C15.9779 24.974 15.3697 25.3804 14.8574 25.8926C14.3452 26.4049 13.9388 27.0131 13.6615 27.6824C13.3843 28.3517 13.2416 29.0691 13.2416 29.7936H7.7248V22.0688H5.5168C4.63883 22.0688 3.79681 21.72 3.17599 21.0992C2.55517 20.4784 2.2064 19.6364 2.2064 18.7584C2.2064 17.8804 2.55517 17.0384 3.17599 16.4176C3.79681 15.7968 4.63883 15.448 5.5168 15.448H7.7248V7.7248H15.448V5.5168C15.448 4.63883 15.7968 3.79681 16.4176 3.17599C17.0384 2.55517 17.8804 2.2064 18.7584 2.2064C19.6364 2.2064 20.4784 2.55517 21.0992 3.17599C21.72 3.79681 22.0688 4.63883 22.0688 5.5168V7.7248H29.7936V13.2416C29.069 13.2414 28.3514 13.3839 27.6819 13.6611C27.0124 13.9382 26.4041 14.3446 25.8916 14.8569C25.3791 15.3692 24.9726 15.9774 24.6953 16.6468C24.4179 17.3163 24.2752 18.0338 24.2752 18.7584Z" fill="#699BF7"/>
</g>
<defs>
<clipPath id="clip0_306_8724">
<rect width="32" height="32" fill="white"/>
</clipPath>
</defs>
</svg>
